PathFileType	4	(X/Y/Z)	OpenSim_Sub02_EMGBaseline_Gyro.trc
DataRate	CameraRate	NumFrames	NumMarkers	Units	OrigDataRate	OrigDataStartFrame	OrigNumFrames
100	100	16	8	m	100	3364	6727
Frame#	Time	torso_imu_offset_imu	pelvis_imu_offset_imu	tibia_r_imu_offset_imu	femur_r_imu_offset_imu	tibia_l_imu_offset_imu	femur_l_imu_offset_imu	toes_r_imu_offset_imu	toes_l_imu_offset_imu
				X1	Y1	Z1	X2	Y2	Z2	X3	Y3	Z3	X4	Y4	Z4	X5	Y5	Z5	X6	Y6	Z6	X7	Y7	Z7	X8		Y8	Z8	

3364	33.63000000	-0.76645103	0.21821975	-0.12525027	-1.16031889	-0.05020107	-0.68139895	-1.38993340	0.34694260	-2.23586625	-1.70412751	1.68206028	2.14045765	3.31459592	-0.67150296	0.93481808	-0.67178557	-0.13669195	1.59307213	0.83628491	-6.55334857	-1.84447985	-0.11240822	0.06454200	-0.02232588
3365	33.64000000	-0.83634410	0.14379198	-0.17089329	-1.14312645	0.09015163	-0.65439653	-1.43337085	0.31792114	-1.98528961	-1.86470079	1.66634177	2.19622641	3.50556583	-0.66644198	1.06602570	-0.66595697	-0.11774995	1.53577513	-0.35874068	-6.19237157	-1.85253214	-0.05662889	0.05399294	0.01165435
3366	33.65000000	-0.90183569	0.06693083	-0.22187346	-1.08687317	0.21413253	-0.57850179	-1.46095333	0.29306309	-1.75376042	-1.94456658	1.59853164	2.19183795	2.97849874	-0.45542725	1.12143013	-0.72541555	-0.17844837	1.52246484	-0.63578294	-5.79195888	-2.06766732	-0.11689683	0.05863386	0.03301048
3367	33.66000000	-0.95483212	-0.00491391	-0.26073588	-1.00914123	0.26609037	-0.43903566	-1.49627432	0.19377363	-1.50423595	-1.96199637	1.47203831	2.18523567	1.81782933	-0.10084138	0.97911666	-0.84205183	-0.27300021	1.46139801	-0.52242119	-5.27382989	-2.17262331	-0.13134254	0.05805139	0.05060097
3368	33.67000000	-0.98606382	-0.06336257	-0.28532604	-0.91970152	0.23540385	-0.24549030	-1.60849078	0.04759140	-1.20472416	-1.89240668	1.29041076	2.17213186	0.38379293	0.10905102	0.76898748	-0.85046014	-0.33421867	1.29942398	-0.66932607	-5.02646792	-2.28891406	-0.08086978	0.05264110	0.04328288
3369	33.68000000	-1.00100435	-0.12114407	-0.28603084	-0.81265156	0.16900785	-0.03527926	-1.79535781	-0.09605584	-0.86397865	-1.65820417	1.09535814	2.09056726	-0.78148619	0.05070617	0.66372294	-0.67731322	-0.34474023	1.04237081	-1.09248204	-5.03154357	-2.50025706	-0.05413061	0.01463033	0.03250565
3370	33.69000000	-1.00586440	-0.18378928	-0.25456096	-0.68100735	0.12019436	0.13324322	-1.98720409	-0.30990278	-0.48589348	-1.35905175	0.92958905	1.98974586	-1.37809155	-0.01910395	0.68726102	-0.45838047	-0.32291802	0.78678614	-1.09826877	-5.67913569	-2.88463470	-0.05901478	-0.00523330	0.01909728
3371	33.70000000	-0.99561906	-0.24666132	-0.21631143	-0.55792667	0.08019646	0.24280537	-2.15908119	-0.64845477	-0.08284168	-1.09345795	0.79852829	1.91948032	-1.56404661	0.07170638	0.79888147	-0.38898277	-0.28964707	0.61171087	-2.84689212	-5.10194994	-3.33263002	-0.03323125	-0.02946837	0.01998437
3372	33.71000000	-0.97752599	-0.31224945	-0.19066007	-0.46294383	0.01591181	0.32651694	-2.30560364	-1.00022275	0.30260958	-0.89140582	0.71057917	1.84345550	-1.32688451	0.15069117	0.92101609	-0.52488233	-0.27492307	0.53470614	-4.91119577	-3.42650092	-3.34993698	-0.01634583	-0.04713847	0.03102186
3373	33.72000000	-0.96650574	-0.36430214	-0.17161618	-0.38433275	-0.06979021	0.39539313	-2.17238111	-1.14723924	0.63078985	-0.72848603	0.66399528	1.75471280	-0.69561348	0.13250730	0.98427604	-0.71715793	-0.33005702	0.54328409	-3.88803594	-1.53690061	-2.64644770	-0.02366504	-0.07214087	0.05212230
3374	33.73000000	-0.95307366	-0.39208912	-0.15104860	-0.33792668	-0.14648273	0.45148981	-1.65881993	-1.10340231	0.78733840	-0.53891969	0.63951985	1.66184031	0.06517467	0.14074262	0.97762813	-0.73446859	-0.40382423	0.55750376	-1.45629921	1.11477887	-1.22771335	-0.04140086	-0.08142281	0.07828743
3375	33.74000000	-0.91707623	-0.39848875	-0.11520466	-0.33138779	-0.18854824	0.48601452	-1.25691005	-1.10369103	0.71814018	-0.30508385	0.64294371	1.58348458	0.73973941	0.18459073	0.96164371	-0.47581570	-0.40949794	0.53229462	-0.32652345	3.30733577	0.47345411	-0.06553087	-0.08134702	0.10943400
3376	33.75000000	-0.87214331	-0.39365975	-0.07165339	-0.37099815	-0.19120168	0.49092700	-1.39762475	-1.25812083	0.63270677	-0.06056917	0.64121793	1.52217087	1.19058205	0.19108259	0.98992579	-0.00720774	-0.35014400	0.49014837	-0.17915623	4.94119216	1.86104090	-0.08324439	-0.06801085	0.13276809
3377	33.76000000	-0.83056904	-0.37417649	-0.03339179	-0.43439562	-0.17194103	0.47789860	-1.85292284	-1.43905178	0.74814926	0.11074616	0.59663169	1.45108542	1.38144062	0.18249654	1.05064450	0.52105542	-0.28545456	0.46972429	0.27449623	5.96097607	2.72856679	-0.07543218	-0.07087306	0.15329953
3378	33.77000000	-0.79774705	-0.34514040	-0.00218833	-0.50291786	-0.13549270	0.45207735	-2.04654040	-1.59851669	1.06188271	0.18383030	0.54420992	1.36165455	1.37227309	0.22757977	1.06958971	0.92641845	-0.26841837	0.48616599	0.32522792	6.48272092	3.04537194	-0.06675476	-0.10929677	0.18248030
3379	33.78000000	-0.77961228	-0.32121891	0.02283123	-0.56552407	-0.09690606	0.43078424	-1.66529681	-1.79873395	1.45151090	0.21712165	0.52646588	1.25983248	1.27804940	0.30514977	1.01928093	1.14880204	-0.29645809	0.53108037	-0.14452002	6.48528851	2.93502809	-0.09446542	-0.11960650	0.20504403
